/app $ touch /tmp/test.mp4
/app $ rm /tmp/test.mp4
/app $
/app $ # Тестируем простую команду FFmpeg
/app $ ffmpeg -f lavfi -i testsrc=duration=1:size=320x240:rate=1 -y /tmp/test_output.mp4
ffmpeg version 6.1.2 Copyright (c) 2000-2024 the FFmpeg developers
  built with gcc 14.2.0 (Alpine 14.2.0)
  configuration: --prefix=/usr --disable-librtmp --disable-lzma --disable-static --disable-stripping --enable-avfilter --enable-gpl --enable-ladspa --enable-libaom --enable-libass --enable-libbluray --enable-libdav1d --enable-libdrm --enable-libfontconfig --enable-lib
freetype --enable-libfribidi --enable-libharfbuzz --enable-libmp3lame --enable-libopenmpt --enable-libopus --enable-libplacebo --enable-libpulse --enable-librav1e --enable-librist --enable-libsoxr --enable-libsrt --enable-libssh --enable-libtheora --enable-libv4l2 --e
nable-libvidstab --enable-libvorbis --enable-libvpx --enable-libwebp --enable-libx264 --enable-libx265 --enable-libxcb --enable-libxml2 --enable-libxvid --enable-libzimg --enable-libzmq --enable-lto=auto --enable-lv2 --enable-openssl --enable-pic --enable-postproc --e
nable-pthreads --enable-shared --enable-vaapi --enable-vdpau --enable-version3 --enable-vulkan --optflags=-O3 --enable-libjxl --enable-libsvtav1 --enable-libvpl
  libavutil      58. 29.100 / 58. 29.100
  libavcodec     60. 31.102 / 60. 31.102
  libavformat    60. 16.100 / 60. 16.100
  libavdevice    60.  3.100 / 60.  3.100
  libavfilter     9. 12.100 /  9. 12.100
  libswscale      7.  5.100 /  7.  5.100
  libswresample   4. 12.100 /  4. 12.100
  libpostproc    57.  3.100 / 57.  3.100
Input #0, lavfi, from 'testsrc=duration=1:size=320x240:rate=1':
  Duration: N/A, start: 0.000000, bitrate: N/A
  Stream #0:0: Video: wrapped_avframe, rgb24, 320x240 [SAR 1:1 DAR 4:3], 1 fps, 1 tbr, 1 tbn
Stream mapping:
  Stream #0:0 -> #0:0 (wrapped_avframe (native) -> h264 (libx264))
Press [q] to stop, [?] for help
[libx264 @ 0x71ece609b8c0] using SAR=1/1
[libx264 @ 0x71ece609b8c0] using cpu capabilities: MMX2 SSE2Fast SSSE3 SSE4.2 AVX FMA3 BMI2 AVX2
[libx264 @ 0x71ece609b8c0] profile High 4:4:4 Predictive, level 1.2, 4:4:4, 8-bit
[libx264 @ 0x71ece609b8c0] 264 - core 164 r3108 - H.264/MPEG-4 AVC codec - Copyleft 2003-2023 - http://www.videolan.org/x264.html - options: cabac=1 ref=3 deblock=1:0:0 analyse=0x3:0x113 me=hex subme=7 psy=1 psy_rd=1.00:0.00 mixed_ref=1 me_range=16 chroma_me=1 trellis
=1 8x8dct=1 cqm=0 deadzone=21,11 fast_pskip=1 chroma_qp_offset=4 threads=6 lookahead_threads=1 sliced_threads=0 nr=0 decimate=1 interlaced=0 bluray_compat=0 constrained_intra=0 bframes=3 b_pyramid=2 b_adapt=1 b_bias=0 direct=1 weightb=1 open_gop=0 weightp=2 keyint=250
 keyint_min=1 scenecut=40 intra_refresh=0 rc_lookahead=40 rc=crf mbtree=1 crf=23.0 qcomp=0.60 qpmin=0 qpmax=69 qpstep=4 ip_ratio=1.40 aq=1:1.00
Output #0, mp4, to '/tmp/test_output.mp4':
  Metadata:
    encoder         : Lavf60.16.100
  Stream #0:0: Video: h264 (avc1 / 0x31637661), yuv444p(tv, progressive), 320x240 [SAR 1:1 DAR 4:3], q=2-31, 1 fps, 16384 tbn
    Metadata:
      encoder         : Lavc60.31.102 libx264
    Side data:
      cpb: bitrate max/min/avg: 0/0/0 buffer size: 0 vbv_delay: N/A
[out#0/mp4 @ 0x71ecea62a7c0] video:4kB audio:0kB subtitle:0kB other streams:0kB global headers:0kB muxing overhead: 21.538462%
frame=    1 fps=0.0 q=17.0 Lsize=       5kB time=00:00:00.00 bitrate=N/A speed=   0x
[libx264 @ 0x71ece609b8c0] frame I:1     Avg QP:15.46  size:  3221
[libx264 @ 0x71ece609b8c0] mb I  I16..4: 46.3% 26.7% 27.0%
[libx264 @ 0x71ece609b8c0] 8x8 transform intra:26.7%
[libx264 @ 0x71ece609b8c0] coded y,u,v intra: 15.2% 11.5% 11.3%
[libx264 @ 0x71ece609b8c0] i16 v,h,dc,p: 81%  6%  6%  7%
[libx264 @ 0x71ece609b8c0] i8 v,h,dc,ddl,ddr,vr,hd,vl,hu: 36% 11% 52%  1%  0%  0%  0%  0%  0%
[libx264 @ 0x71ece609b8c0] i4 v,h,dc,ddl,ddr,vr,hd,vl,hu: 53% 21% 18%  2%  2%  2%  0%  2%  0%
[libx264 @ 0x71ece609b8c0] kb/s:25.77
/app $ s -la /tmp/test_output.mp4
sh: s: not found